<?xml version="1.0" encoding="UTF-8" standalone="no"?>
<svg width="683px" height="194px" viewBox="0 0 683 194" version="1.1" xmlns="http://www.w3.org/2000/svg" xmlns:xlink="http://www.w3.org/1999/xlink">
    <!-- Generator: Sketch 41.2 (35397) - http://www.bohemiancoding.com/sketch -->
    <title>Fill 11</title>
    <desc>Created with Sketch.</desc>
    <defs></defs>
    <g id="Home" stroke="none" stroke-width="1" fill="none" fill-rule="evenodd">
        <g id="Desktop-HD-Home-Page-Copy-2" transform="translate(-28.000000, -494.000000)" fill="#067384">
            <path d="M120.705867,494.895792 L117.551808,494.537919 L106.83221,494.357872 L103.678151,494 L99.2631692,495.253664 L94.8481872,494.177825 L87.911359,494.895792 L80.3440692,494.177825 L74.6681641,495.075839 L71.5141051,494.537919 L64.5772769,494.895792 L60.7927564,494.357872 L57.0099872,495.075839 L48.8104846,494.357872 L45.0277154,495.075839 L37.4586744,495.075839 L37.4586744,496.329503 L34.3063667,495.613758 L30.5218462,496.50955 L31.1523077,500.632859 L32.4149821,501.708698 L28.6304615,503.144631 L31.1523077,504.756167 L29.2609231,506.730021 L32.4149821,510.673282 L28.6304615,511.749121 L29.8913846,513.005007 L32.4149821,513.900799 L30.5218462,515.874652 L32.4149821,518.742074 L28.6304615,523.763397 L35.5672897,524.301316 L32.4149821,525.017061 L34.9368282,525.197108 L34.3063667,525.735028 L31.7827692,525.197108 L33.0454436,526.452994 L29.2609231,526.990914 L31.7827692,527.886706 L32.4149821,529.142592 L29.2609231,529.680511 L32.4149821,532.190062 L30.5218462,532.905806 L29.2609231,537.209162 L28,538.107176 L30.5218462,538.82292 L29.2609231,542.948451 L30.5218462,543.664196 L34.3063667,544.02429 L31.1523077,544.740035 L29.8913846,546.891713 L32.4149821,549.043391 L29.8913846,549.761358 L29.2609231,550.837197 L30.5218462,554.960505 L29.2609231,555.856297 L33.6759051,557.112183 L31.1523077,557.29223 L29.8913846,558.368069 L29.8913846,562.84925 L28.6304615,563.925089 L30.5218462,564.643056 L31.7827692,566.794734 L30.5218462,567.510478 L30.5218462,568.766365 L31.7827692,569.484331 L30.5218462,570.380123 L30.5218462,572.889673 L29.2609231,573.965512 L31.7827692,575.221399 L31.1523077,580.778418 L29.2609231,581.854257 L30.5218462,582.752272 L29.2609231,585.799741 L31.1523077,587.593547 L29.2609231,588.669386 L31.7827692,589.207305 L32.4149821,590.283144 L30.5218462,590.821064 L28.6304615,593.508439 L30.5218462,594.226406 L31.1523077,595.302245 L29.2609231,599.425553 L32.4149821,599.425553 L29.2609231,601.039312 L31.1523077,607.674393 L35.5672897,607.674393 L31.7827692,608.570185 L30.5218462,609.465976 L30.5218462,612.515669 L33.6759051,613.591507 L30.5218462,615.383091 L35.5672897,617.714816 L29.2609231,618.252736 L31.7827692,623.809755 L29.2609231,626.141481 L31.1523077,627.21732 L29.2609231,629.549045 L30.5218462,631.700723 L34.3063667,632.776562 L31.1523077,632.596515 L28.6304615,632.954387 L30.5218462,634.748193 L35.5672897,634.92824 L34.3063667,635.824032 L31.7827692,636.004079 L28.6304615,637.795662 L29.2609231,638.513629 L33.6759051,639.409421 L29.2609231,640.48526 L30.5218462,641.381051 L33.0454436,641.741146 L31.7827692,642.816985 L32.4149821,643.892824 L29.8913846,644.608568 L29.2609231,647.120341 L33.6759051,646.760246 L35.5672897,647.836085 L30.5218462,647.836085 L31.1523077,650.167811 L29.2609231,651.423697 L32.4149821,654.829039 L29.8913846,655.72483 L31.7827692,658.594475 L30.5218462,659.670314 L32.4149821,660.566106 L30.5218462,662.179864 L31.1523077,664.331542 L29.2609231,665.049509 L38.0908872,667.201187 L31.7827692,666.48322 L28.6304615,668.634898 L31.1523077,671.504543 L30.5218462,673.656221 L34.3063667,674.014093 L37.4586744,673.118301 L39.3518103,673.476174 L29.8913846,675.447804 L28.6304615,676.703691 L31.1523077,677.24161 L29.2609231,677.77953 L29.2609231,678.675321 L32.4149821,678.855369 L33.6759051,679.573335 L31.1523077,679.213241 L30.5218462,685.310403 L32.4149821,686.026147 L38.0908872,687.101986 L45.6581769,686.924161 L50.7036205,687.819953 L53.8559282,686.924161 L56.3795256,687.282033 L63.3163538,687.462081 L70.2531821,686.924161 L81.6049923,687.639905 L89.8044949,687.101986 L98.6327077,687.819953 L101.156305,686.924161 L109.354056,687.462081 L113.138577,687.101986 L116.921346,687.462081 L133.3186,687.819953 L136.472659,687.101986 L140.887641,686.924161 L142.779026,687.462081 L147.824469,686.924161 L156.022221,687.462081 L159.806741,687.101986 L163.591262,687.462081 L173.680397,687.462081 L176.203995,686.744114 L179.356303,687.282033 L190.708113,687.462081 L194.492633,687.101986 L202.690385,687.462081 L207.105367,686.744114 L212.781272,687.639905 L231.06991,687.101986 L234.223969,687.462081 L236.745815,686.386242 L244.314856,687.462081 L245.575779,685.848322 L248.729838,685.848322 L249.990762,687.282033 L253.773531,687.282033 L256.92759,687.819953 L259.449436,687.282033 L265.125341,688 L268.909862,687.101986 L275.84669,687.639905 L284.046192,687.101986 L286.568038,686.564066 L284.676654,685.488227 L286.568038,684.412388 L288.459423,685.310403 L287.828962,686.744114 L294.135328,687.282033 L300.443446,686.564066 L301.073908,687.101986 L308.010736,687.101986 L310.532582,686.564066 L309.902121,685.668275 L313.056179,685.130355 L314.317103,685.668275 L310.532582,687.462081 L314.947564,687.282033 L317.471162,686.744114 L329.453433,687.462081 L336.390262,686.026147 L338.281646,686.744114 L341.435705,687.101986 L344.588013,686.744114 L346.481149,687.282033 L354.048438,687.462081 L360.985267,687.101986 L364.769787,687.639905 L369.184769,687.462081 L372.337077,686.744114 L372.337077,687.282033 L383.058426,687.282033 L389.995254,686.744114 L395.671159,687.462081 L410.177028,686.924161 L410.177028,684.950308 L412.698874,684.772483 L415.222472,685.130355 L411.437951,686.564066 L412.698874,687.282033 L424.050685,687.282033 L427.204744,686.564066 L434.141572,687.462081 L445.493382,687.282033 L447.384767,686.564066 L451.169287,686.026147 L451.799749,687.282033 L455.584269,687.462081 L463.151559,686.924161 L466.936079,687.462081 L471.351062,687.462081 L474.503369,687.101986 L475.764292,687.819953 L484.594256,686.744114 L492.161546,687.282033 L499.098374,686.924161 L504.143818,685.848322 L506.036954,687.282033 L511.712859,686.744114 L514.865167,686.924161 L518.649687,685.848322 L519.280149,686.924161 L523.695131,687.101986 L531.892882,686.386242 L533.786018,687.282033 L538.199249,687.101986 L542.614231,687.462081 L545.76829,687.101986 L552.705118,687.462081 L555.857426,688 L559.011485,687.282033 L562.796005,687.282033 L566.578774,687.819953 L569.732833,686.564066 L577.930585,687.462081 L580.454182,686.924161 L584.236951,686.924161 L586.760549,686.026147 L587.39101,687.282033 L591.805992,687.819953 L594.9583,686.924161 L602.527341,687.462081 L614.509613,686.564066 L618.924595,687.101986 L622.076903,686.924161 L637.213233,687.282033 L644.150062,687.101986 L647.934582,687.462081 L652.347813,687.282033 L655.501872,686.744114 L665.592759,687.819953 L673.79051,687.639905 L680.727338,686.564066 L683.881397,687.462081 L695.863669,687.462081 L703.430959,686.744114 L705.324095,685.668275 L707.845941,685.130355 L708.476403,682.79863 L705.324095,681.902838 L708.476403,681.007047 L707.845941,678.855369 L705.954556,678.137402 L707.845941,677.24161 L708.476403,675.807899 L706.585018,674.014093 L707.845941,671.862415 L706.585018,670.606529 L708.476403,669.352865 L707.215479,668.454851 L708.476403,665.229556 L706.585018,664.691637 L705.954556,663.793623 L707.215479,662.897831 L706.585018,660.746153 L708.476403,659.850361 L707.845941,658.056556 L701.539574,656.980717 L707.215479,656.26275 L707.845941,649.629891 L709.739077,648.734099 L709.106864,647.478213 L707.215479,646.582421 L708.476403,645.506582 L707.845941,641.918971 L709.739077,641.023179 L708.476403,640.127388 L708.476403,634.39032 L707.215479,629.906917 L709.739077,628.831078 L708.476403,627.935287 L709.739077,627.037272 L705.324095,624.885594 L705.324095,623.989803 L707.845941,623.631931 L707.215479,620.762286 L708.476403,618.790655 L707.215479,617.894863 L708.476403,613.769332 L707.215479,612.873541 L708.476403,610.90191 L708.476403,606.418507 L709.739077,604.626923 L707.845941,603.728909 L708.476403,600.68144 L711,598.709809 L709.106864,598.17189 L707.845941,597.096051 L707.845941,594.944373 L709.739077,592.970519 L707.215479,591.896903 L707.215479,585.799741 L708.476403,584.903949 L705.954556,582.034305 L709.739077,579.702579 L706.585018,578.448916 L706.585018,576.11719 L708.476403,573.787687 L707.215479,571.636009 L709.106864,567.690526 L708.476403,563.207122 L706.585018,560.87762 L708.476403,559.801781 L707.215479,557.83015 L708.476403,556.754311 L705.954556,553.346747 L708.476403,552.808827 L703.430959,551.732988 L707.845941,549.939182 L707.845941,546.353793 L709.739077,545.638049 L709.739077,544.920082 L706.585018,544.56221 L709.739077,542.948451 L707.845941,539.720934 L709.739077,533.443725 L706.585018,532.547934 L709.106864,529.500464 L705.954556,523.225478 L707.845941,522.327463 L708.476403,519.817913 L707.215479,518.742074 L709.739077,517.48841 L707.215479,516.052477 L707.845941,510.495457 L709.739077,508.521604 L707.845941,506.012054 L708.476403,501.708698 L706.585018,499.55702 L707.845941,498.841275 L708.476403,496.867422 L697.124592,494.357872 L692.711362,495.253664 L691.448687,494.537919 L688.926841,494.177825 L685.142321,494.537919 L683.250936,495.075839 L682.620474,495.971631 L680.727338,494.715744 L664.962297,494.715744 L662.4387,495.075839 L658.655931,494.357872 L653.610487,495.433711 L651.08689,494.715744 L646.671908,494.357872 L644.780523,495.433711 L632.16779,494.895792 L629.013731,495.075839 L632.798251,496.867422 L629.644192,496.867422 L627.752808,495.971631 L628.383269,494.895792 L621.446441,495.253664 L606.940572,494.537919 L603.157803,494.895792 L601.896879,495.613758 L598.742821,494.715744 L594.9583,494.537919 L590.545069,495.075839 L587.39101,494.537919 L579.193259,494.715744 L579.193259,495.433711 L569.102372,494.715744 L546.398751,494.177825 L543.244692,495.253664 L540.092385,494.715744 L531.892882,494.715744 L526.847438,495.253664 L526.216977,494.537919 L522.434208,494.177825 L519.91061,494.895792 L505.406492,494.357872 L502.252433,494.895792 L498.467913,494.357872 L490.270162,495.075839 L486.485641,494.357872 L478.918351,494.895792 L470.088387,494.715744 L464.412482,495.433711 L461.890636,494.715744 L457.475654,494.357872 L453.692885,494.715744 L441.0784,494.357872 L438.556554,495.433711 L436.032956,494.177825 L416.483395,494.895792 L410.80749,494 L403.870662,494.715744 L396.933833,494 L392.518851,494.537919 L384.94981,494.537919 L381.797503,494.895792 L376.752059,494.177825 L373.598,494.537919 L357.202497,494.357872 L353.417977,494.895792 L350.263918,494.537919 L338.912108,495.075839 L335.7598,494.537919 L328.190759,494.715744 L328.190759,495.613758 L326.929836,496.151678 L323.777528,494.895792 L315.578026,494.537919 L308.010736,494.895792 L304.856677,495.613758 L302.334831,494.715744 L287.1985,494.715744 L284.676654,495.075839 L280.892133,494.177825 L277.107613,495.075839 L269.540323,494.715744 L255.036205,495.075839 L252.512608,494.357872 L241.160797,494.715744 L229.808987,494.177825 L221.611236,494.537919 L217.826715,495.075839 L212.15081,494.357872 L208.998503,494.715744 L204.583521,494.537919 L197.646692,495.253664 L195.753556,494 L192.601249,494.537919 L185.032208,494.715744 L173.680397,494.177825 L169.897628,494.715744 L161.698126,494.895792 L150.976777,494.177825 L149.085392,495.253664 L140.887641,494.895792 L137.733582,494.177825 L127.012233,494.715744 L123.227713,494.357872 L120.705867,495.613758 L120.705867,494.895792 Z M354.048438,677.959577 L354.6789,678.137402 L358.463421,679.573335 L364.769787,678.497496 L367.922095,678.317449 L364.139326,679.573335 L366.661172,681.725013 L361.615728,681.007047 L356.570285,682.262933 L352.787515,685.130355 L360.354805,684.950308 L362.878403,685.488227 L360.354805,685.848322 L357.832959,685.488227 L354.048438,686.026147 L349.002995,686.026147 L349.633456,683.874469 L359.093882,680.28908 L352.157054,680.28908 L348.372533,681.544966 L347.742072,680.826999 L349.633456,679.75116 L353.417977,679.213241 L350.894379,677.421657 L354.048438,677.959577 Z M364.769787,675.089932 L367.922095,674.552013 L369.184769,673.476174 L378.012982,674.73206 L378.643444,676.345818 L374.860674,676.523643 L372.967538,677.421657 L370.445692,677.421657 L362.878403,675.807899 L364.769787,675.089932 Z M381.797503,674.552013 L381.797503,673.476174 L384.94981,674.371965 L388.734331,674.371965 L394.410236,674.909885 L395.671159,673.476174 L398.194756,675.269979 L391.88839,676.165771 L393.779774,677.061563 L393.779774,678.137402 L390.625715,679.931208 L388.734331,679.393288 L389.364792,677.24161 L391.257928,676.345818 L388.734331,675.807899 L382.427964,675.627852 L381.797503,674.552013 Z M366.03071,670.786576 L361.615728,668.99277 L362.24619,667.919154 L365.400249,668.454851 L368.554308,670.068609 L371.706615,670.606529 L372.337077,672.042463 L376.752059,671.862415 L377.382521,672.758207 L374.860674,673.118301 L371.706615,672.042463 L365.400249,672.758207 L364.139326,671.862415 L367.291633,671.682368 L366.03071,670.786576 Z M296.658926,681.725013 L299.180772,681.187094 L302.334831,681.544966 L301.073908,682.620805 L301.704369,683.516597 L304.856677,684.950308 L299.180772,685.488227 L297.919849,684.592436 L298.55031,682.620805 L294.767541,682.620805 L293.504867,681.544966 L296.658926,681.725013 Z M372.967538,678.855369 L376.752059,677.421657 L377.382521,678.317449 L376.121597,679.573335 L378.643444,678.855369 L382.427964,678.497496 L383.058426,679.573335 L385.582023,680.469127 L372.337077,680.111255 L372.967538,678.855369 Z M398.194756,680.649174 L396.933833,679.931208 L396.933833,678.855369 L400.086141,681.007047 L402.609738,680.826999 L403.2402,683.336549 L400.086141,683.336549 L396.933833,682.620805 L392.518851,682.262933 L395.040697,681.725013 L398.194756,681.725013 L398.194756,680.649174 Z M34.9368282,681.544966 L36.1977513,680.826999 L39.9822718,680.826999 L41.2431949,681.544966 L37.4586744,684.412388 L34.3063667,682.79863 L34.9368282,681.544966 Z M344.588013,661.46412 L347.742072,660.9262 L349.002995,659.670314 L353.417977,661.284073 L347.742072,662.897831 L343.32709,662.539959 L344.588013,661.46412 Z M521.171533,655.904878 L524.325592,656.26275 L529.371036,657.518636 L519.280149,658.952347 L522.434208,657.338589 L518.649687,656.442797 L521.171533,655.904878 Z M407.022969,673.656221 L409.546567,674.371965 L413.961549,674.552013 L412.698874,675.627852 L408.916105,674.909885 L406.392508,676.345818 L404.501123,675.627852 L404.501123,674.552013 L407.022969,673.656221 Z M299.811233,674.552013 L300.443446,673.476174 L302.965292,674.014093 L304.226215,674.909885 L306.119351,674.19414 L309.271659,674.371965 L307.380274,675.447804 L297.919849,675.447804 L299.811233,674.552013 Z M489.009238,640.305212 L495.315605,639.051549 L499.730587,639.051549 L502.252433,639.767293 L495.946067,640.305212 L492.792008,640.127388 L487.748315,641.023179 L489.009238,640.305212 Z M369.184769,682.978677 L371.076154,682.262933 L374.860674,681.902838 L374.860674,683.158725 L369.815231,683.336549 L366.661172,683.874469 L362.24619,683.336549 L362.878403,682.262933 L365.400249,683.158725 L369.184769,682.978677 Z M328.822972,683.516597 L339.542569,683.158725 L337.651185,683.874469 L333.866664,683.874469 L328.190759,684.950308 L325.038451,683.874469 L328.822972,683.516597 Z M475.764292,641.741146 L479.548813,641.561099 L475.764292,642.636938 L470.088387,642.816985 L469.457926,641.741146 L465.044695,641.203227 L468.197003,641.023179 L472.611985,641.741146 L475.764292,641.741146 Z M263.233956,647.836085 L263.864418,646.940294 L270.170785,648.374005 L267.648938,649.091972 L263.864418,649.091972 L263.233956,647.836085 Z M378.643444,685.310403 L383.058426,684.054516 L384.94981,684.950308 L383.688887,686.026147 L376.752059,686.026147 L378.643444,685.310403 Z M551.444195,588.847211 L556.489638,589.92305 L555.226964,591.536808 L553.335579,590.641017 L549.551059,590.103097 L551.444195,588.847211 Z M328.822972,659.490267 L331.344818,660.028186 L330.714356,661.104025 L328.190759,661.821992 L325.668913,660.208234 L328.822972,659.490267 Z M331.344818,666.663268 L337.020723,666.663268 L338.912108,667.919154 L331.344818,667.739107 L331.344818,666.663268 Z M514.234705,655.547006 L517.388764,656.800669 L516.12609,657.698684 L513.604244,658.056556 L512.343321,655.72483 L514.234705,655.547006 Z M572.885141,603.551084 L571.624218,601.577231 L574.778277,602.295198 L577.930585,601.937326 L575.408738,603.908957 L572.885141,603.551084 Z M512.343321,635.824032 L516.12609,638.153534 L511.712859,637.97571 L509.819723,636.899871 L512.343321,635.824032 Z M364.139326,663.793623 L364.139326,662.897831 L367.922095,663.435751 L369.184769,664.691637 L362.878403,664.691637 L364.139326,663.793623 Z M695.863669,586.87558 L698.387267,585.979788 L699.017728,587.233452 L697.755054,588.131466 L694.602746,588.131466 L692.711362,587.593547 L695.863669,586.87558 Z M526.847438,653.933247 L531.262421,653.933247 L529.371036,655.009086 L524.956054,655.009086 L522.434208,654.111072 L526.847438,653.933247 Z M326.929836,671.144448 L331.344818,670.966624 L333.866664,671.682368 L326.929836,672.220287 L324.40799,671.862415 L326.929836,671.144448 Z M420.267915,646.222327 L426.574282,645.506582 L420.267915,647.120341 L415.852933,647.120341 L416.483395,646.044502 L420.267915,646.222327 Z M603.157803,578.448916 L605.049187,577.910996 L605.679649,576.835157 L610.094631,578.088821 L603.157803,579.16466 L603.157803,578.448916 Z M284.046192,677.24161 L286.568038,677.599482 L287.828962,678.675321 L286.568038,679.573335 L282.783518,678.497496 L284.046192,677.24161 Z M484.594256,651.423697 L484.594256,650.525683 L486.485641,649.629891 L489.6397,650.525683 L488.378777,651.601522 L484.594256,651.423697 Z M378.643444,665.407381 L381.167041,665.587429 L381.797503,666.663268 L378.012982,667.201187 L376.121597,665.945301 L378.643444,665.407381 Z M516.758303,635.286112 L518.649687,635.286112 L519.280149,636.004079 L522.434208,636.004079 L521.801995,636.899871 L518.649687,637.257743 L516.758303,636.181904 L516.758303,635.286112 Z M269.540323,655.72483 L270.801246,654.648991 L273.324844,655.186911 L272.694382,656.084925 L270.170785,656.800669 L267.018477,656.800669 L269.540323,655.72483 Z M40.6127333,497.227517 L41.2431949,496.50955 L43.1345795,496.50955 L45.0277154,499.0191 L40.6127333,498.123309 L40.6127333,497.227517 Z M246.206241,638.333582 L247.467164,637.795662 L249.990762,638.513629 L248.097626,639.409421 L244.314856,639.589468 L244.945318,638.871501 L243.053933,638.153534 L246.206241,638.333582 Z M346.481149,670.786576 L347.11161,670.068609 L352.787515,670.606529 L350.894379,671.504543 L347.742072,671.682368 L346.481149,670.786576 Z M261.342572,641.023179 L265.125341,641.203227 L264.494879,643.174857 L260.081649,641.741146 L261.342572,641.023179 Z M448.016979,660.746153 L451.169287,660.388281 L454.323346,660.746153 L451.799749,661.46412 L448.647441,661.641945 L445.493382,661.284073 L448.016979,660.746153 Z M654.240949,588.847211 L654.87141,587.593547 L657.393256,587.593547 L657.393256,589.38513 L654.87141,589.92305 L654.240949,588.847211 Z M299.180772,660.9262 L297.919849,660.208234 L299.180772,659.312442 L301.073908,659.312442 L302.965292,661.104025 L299.180772,660.9262 Z M412.698874,682.79863 L417.744318,682.79863 L417.744318,683.696644 L410.177028,683.696644 L412.698874,682.79863 Z M596.220974,575.579271 L599.373282,575.759318 L599.373282,577.015204 L595.588762,576.65511 L593.697377,576.11719 L596.220974,575.579271 Z M690.818226,498.123309 L691.448687,496.867422 L693.341823,496.867422 L694.602746,497.943261 L693.972285,499.0191 L690.818226,498.123309 Z M337.651185,666.305395 L336.390262,665.407381 L338.912108,665.407381 L341.435705,665.945301 L342.066167,666.663268 L339.542569,667.02114 L337.651185,666.305395 Z M688.296379,601.039312 L690.187764,600.323567 L693.972285,600.501392 L692.079149,601.399406 L688.296379,601.937326 L688.296379,601.039312 Z M625.230962,587.233452 L616.400997,586.517708 L617.661921,585.619694 L620.815979,585.979788 L622.707364,586.695533 L625.230962,587.233452 Z M253.143069,652.857408 L255.036205,652.139441 L256.92759,652.677361 L257.558051,653.573152 L252.512608,653.7532 L253.143069,652.857408 Z M369.184769,668.634898 L369.184769,667.739107 L372.337077,667.739107 L370.445692,668.454851 L372.967538,668.634898 L372.337077,669.53069 L368.554308,669.352865 L369.184769,668.634898 Z M483.963795,684.054516 L482.07241,683.336549 L490.270162,683.696644 L488.378777,684.412388 L485.224718,684.412388 L483.963795,684.054516 Z M43.1345795,615.92101 L41.2431949,614.845171 L43.765041,614.845171 L45.0277154,617.534769 L41.8736564,616.996849 L43.1345795,615.92101 Z M557.750562,605.522715 L560.272408,606.060635 L561.533331,606.956426 L557.750562,607.674393 L557.750562,605.522715 Z M352.157054,666.305395 L352.787515,665.767476 L355.309362,665.945301 L356.570285,667.02114 L351.526592,667.201187 L352.157054,666.305395 Z M343.957551,677.959577 L342.696628,676.883738 L347.11161,677.061563 L345.850687,678.317449 L342.066167,678.855369 L343.957551,677.959577 Z M581.084644,604.266829 L583.60649,604.446876 L582.345567,607.852218 L581.084644,604.984796 L581.084644,604.266829 Z M381.167041,670.068609 L381.797503,670.966624 L380.536579,671.682368 L377.382521,671.682368 L378.643444,670.428704 L381.167041,670.068609 Z M545.76829,589.745225 L542.614231,591.358983 L540.722846,590.821064 L540.722846,589.92305 L545.76829,589.745225 Z M560.902869,603.551084 L564.68739,603.19099 L563.426467,604.266829 L560.272408,604.626923 L558.381023,604.089004 L560.902869,603.551084 Z M664.962297,684.412388 L668.114605,684.772483 L671.268664,684.592436 L670.00599,685.488227 L666.223221,685.668275 L664.962297,684.412388 Z M468.827464,656.26275 L477.657428,657.338589 L474.503369,658.236603 L473.242446,657.160764 L470.088387,656.800669 L468.827464,656.26275 Z M528.110113,627.037272 L531.262421,627.21732 L531.262421,627.935287 L527.4779,628.113111 L525.586515,627.037272 L528.110113,627.037272 Z M90.4349564,653.7532 L94.8481872,653.7532 L92.326341,654.829039 L88.5418205,654.829039 L90.4349564,653.7532 Z M545.137828,684.592436 L542.614231,683.874469 L541.983769,682.978677 L545.76829,683.516597 L547.659674,684.412388 L545.137828,684.592436 Z M365.400249,659.850361 L367.922095,659.850361 L368.554308,660.9262 L366.661172,660.566106 L363.508864,660.9262 L362.24619,660.388281 L365.400249,659.850361 Z M549.551059,605.164843 L552.074656,605.164843 L552.705118,606.418507 L547.029213,605.880587 L549.551059,605.164843 Z M654.87141,586.157613 L651.08689,587.055627 L647.304121,586.695533 L647.934582,586.157613 L654.87141,586.157613 Z M702.800497,659.312442 L706.585018,659.132395 L704.693633,660.388281 L700.909113,660.388281 L702.800497,659.312442 Z M111.245441,654.111072 L113.138577,655.366958 L109.354056,655.366958 L108.093133,654.291119 L111.245441,654.111072 Z M248.729838,642.99481 L252.512608,642.45689 L255.036205,643.174857 L251.251685,643.354904 L249.3603,644.070649 L248.729838,642.99481 Z M243.053933,650.525683 L246.836703,650.70573 L248.729838,651.24365 L242.421721,651.601522 L243.053933,650.525683 Z M565.948313,588.131466 L566.578774,587.4135 L569.102372,587.771372 L569.102372,588.847211 L565.948313,589.027258 L565.948313,588.131466 Z M695.863669,503.680328 L699.017728,504.218248 L698.387267,505.116262 L692.711362,503.860376 L695.863669,503.680328 Z M38.0908872,605.342668 L38.7213487,604.089004 L41.8736564,604.266829 L38.0908872,606.418507 L38.0908872,605.342668 Z M551.444195,613.41146 L552.705118,612.515669 L555.226964,612.693493 L554.596503,613.769332 L552.074656,614.129427 L551.444195,613.41146 Z M655.501872,597.811795 L654.240949,598.709809 L651.717351,599.067681 L650.456428,597.811795 L655.501872,597.811795 Z M361.615728,670.248657 L362.878403,671.324496 L360.354805,671.682368 L357.832959,670.606529 L361.615728,670.248657 Z M552.705118,621.6603 L550.181521,623.271836 L548.290136,622.556092 L548.290136,621.838125 L552.705118,621.6603 Z M408.285644,670.068609 L406.392508,668.814946 L407.653431,668.814946 L410.80749,669.710737 L411.437951,670.786576 L408.285644,670.068609 Z M317.471162,653.573152 L319.993008,652.677361 L321.884392,653.21528 L315.578026,654.829039 L317.471162,653.573152 Z M444.232459,664.153717 L444.862921,663.077878 L446.754305,663.793623 L446.754305,664.869462 L443.601997,665.049509 L444.232459,664.153717 Z M256.297128,637.43779 L258.818974,636.899871 L261.973033,637.617837 L254.405744,638.153534 L256.297128,637.43779 Z M676.314108,589.38513 L679.466415,590.283144 L680.727338,591.536808 L675.051433,589.92305 L676.314108,589.38513 Z M536.938326,626.321528 L537.568787,625.245689 L540.092385,625.245689 L539.461923,626.499353 L536.307864,627.037272 L536.938326,626.321528 Z M323.777528,664.691637 L326.929836,663.97367 L328.190759,665.229556 L324.40799,664.869462 L324.40799,665.407381 L321.884392,665.767476 L323.777528,664.691637 Z M261.973033,652.497313 L265.125341,652.857408 L265.757554,653.7532 L261.342572,653.573152 L261.973033,652.497313 Z M68.3617974,496.329503 L71.5141051,495.971631 L70.2531821,497.405342 L66.4686615,497.04747 L68.3617974,496.329503 Z M450.538826,645.146488 L445.493382,643.174857 L448.016979,643.174857 L449.908364,644.430743 L453.060672,645.146488 L450.538826,645.146488 Z M618.924595,583.648063 L615.770536,584.005935 L614.509613,583.290191 L616.400997,582.392177 L618.924595,583.648063 Z M254.405744,645.326535 L255.666667,644.250696 L257.558051,644.430743 L256.297128,646.402374 L254.405744,645.326535 Z M465.675156,652.139441 L465.675156,651.24365 L468.197003,651.781569 L469.457926,652.677361 L466.305618,652.857408 L465.675156,652.139441 Z M251.882146,638.871501 L255.666667,639.051549 L256.297128,639.94734 L252.512608,639.94734 L251.882146,638.871501 Z M683.250936,570.737995 L685.772782,570.380123 L687.665918,571.275915 L681.359551,571.455962 L683.250936,570.737995 Z M514.865167,633.852401 L513.604244,632.776562 L516.12609,632.776562 L518.019226,634.39032 L514.865167,633.852401 Z M685.142321,558.545894 L681.990013,558.007975 L681.359551,557.112183 L687.665918,558.368069 L685.142321,558.545894 Z M698.387267,497.943261 L701.539574,497.585389 L701.539574,498.661228 L697.755054,498.841275 L698.387267,497.943261 Z M683.250936,584.903949 L686.403244,584.543855 L683.881397,586.157613 L681.990013,585.979788 L683.250936,584.903949 Z M398.194756,676.883738 L400.716603,677.24161 L400.086141,678.137402 L396.933833,678.137402 L398.194756,676.883738 Z M421.528838,682.79863 L420.267915,681.902838 L424.050685,682.082886 L424.681146,683.158725 L421.528838,682.79863 Z M41.8736564,518.742074 L42.5041179,519.817913 L39.3518103,519.460041 L38.7213487,518.384202 L41.8736564,518.742074 Z M506.036954,653.573152 L506.036954,652.319489 L508.5588,652.857408 L509.189262,653.933247 L506.036954,653.573152 Z M189.44719,513.005007 L188.816728,514.260893 L184.401746,513.185054 L189.44719,513.005007 Z M514.234705,653.395328 L518.019226,653.21528 L515.495628,654.291119 L512.343321,654.111072 L514.234705,653.395328 Z M335.129338,669.352865 L338.912108,669.352865 L338.281646,670.248657 L336.390262,670.606529 L335.129338,669.352865 Z M42.5041179,499.737067 L45.0277154,499.199148 L46.2886385,500.274987 L41.2431949,500.274987 L42.5041179,499.737067 Z M546.398751,599.067681 L550.181521,599.067681 L548.920597,599.963473 L546.398751,600.14352 L546.398751,599.067681 Z M646.041446,588.669386 L646.671908,587.771372 L649.825967,588.309291 L648.565044,589.207305 L646.041446,588.669386 Z M696.494131,598.709809 L699.017728,599.067681 L700.278651,599.785648 L695.233208,599.605601 L696.494131,598.709809 Z M417.744318,679.75116 L420.267915,679.931208 L419.637454,680.826999 L416.483395,681.007047 L417.744318,679.75116 Z M525.586515,588.847211 L526.847438,589.92305 L523.695131,589.745225 L522.434208,588.847211 L525.586515,588.847211 Z M391.88839,671.682368 L394.410236,672.042463 L395.671159,672.938254 L391.257928,672.580382 L391.88839,671.682368 Z M668.114605,569.842204 L669.375528,570.918043 L666.223221,570.737995 L664.962297,569.842204 L668.114605,569.842204 Z M127.642695,578.088821 L130.796754,577.910996 L129.535831,578.806788 L126.381772,579.344707 L127.642695,578.088821 Z M314.947564,676.523643 L316.838949,675.447804 L318.101623,676.165771 L317.471162,677.24161 L314.947564,676.523643 Z M145.300872,523.58335 L148.454931,523.58335 L146.563546,524.479141 L143.409487,524.659189 L145.300872,523.58335 Z M408.285644,682.262933 L405.762046,681.544966 L410.177028,681.544966 L412.068413,682.262933 L408.285644,682.262933 Z M588.651933,497.765436 L589.282395,496.50955 L591.175531,497.227517 L591.805992,498.303356 L588.651933,497.765436 Z M668.114605,578.448916 L671.268664,578.806788 L672.529587,579.524755 L668.114605,579.344707 L668.114605,578.448916 Z M354.048438,669.352865 L354.048438,668.634898 L357.202497,668.814946 L355.939823,670.068609 L354.048438,669.352865 Z M358.463421,678.137402 L354.6789,678.137402 L355.939823,677.421657 L359.093882,677.24161 L358.463421,678.137402 Z M488.378777,556.216391 L487.116103,556.932136 L484.594256,557.29223 L483.963795,556.394216 L488.378777,556.216391 Z M700.278651,582.214352 L697.755054,583.648063 L695.863669,582.572224 L700.278651,582.214352 Z M96.1108615,500.992953 L99.2631692,501.170778 L96.7413231,501.888745 L93.5872641,501.708698 L96.1108615,500.992953 Z M272.063921,685.668275 L272.063921,684.592436 L274.585767,685.488227 L274.585767,686.564066 L272.063921,685.668275 Z M292.874405,657.160764 L294.135328,656.442797 L296.658926,656.800669 L296.028464,657.698684 L292.874405,657.160764 Z M474.503369,667.919154 L477.657428,667.919154 L476.396505,668.814946 L473.242446,668.634898 L474.503369,667.919154 Z M492.792008,685.488227 L494.054682,686.386242 L490.900623,686.206194 L489.6397,685.310403 L492.792008,685.488227 Z M457.475654,662.717784 L459.36879,661.821992 L460.629713,662.539959 L459.999251,663.435751 L457.475654,662.717784 Z M687.665918,595.122197 L687.035456,594.046358 L689.557303,594.406453 L690.818226,595.302245 L687.665918,595.122197 Z M590.545069,599.785648 L595.588762,600.501392 L591.175531,600.861487 L590.545069,599.785648 Z M654.87141,562.669203 L654.87141,561.773411 L658.023718,562.491378 L657.393256,563.207122 L654.87141,562.669203 Z M587.39101,599.067681 L586.760549,598.349714 L590.545069,598.349714 L590.545069,599.067681 L587.39101,599.067681 Z M33.6759051,663.435751 L35.5672897,663.793623 L36.1977513,664.691637 L33.6759051,664.331542 L32.4149821,663.615798 L33.6759051,663.435751 Z M289.091636,649.091972 L291.613482,649.091972 L290.983021,649.987763 L288.459423,650.167811 L289.091636,649.091972 Z M360.354805,663.97367 L361.615728,664.869462 L358.463421,664.691637 L357.202497,663.97367 L360.354805,663.97367 Z M514.865167,627.755239 L516.758303,628.473206 L516.12609,629.011125 L512.343321,627.935287 L514.865167,627.755239 Z M425.313359,680.28908 L425.943821,679.213241 L427.835205,679.75116 L427.204744,680.826999 L425.313359,680.28908 Z M579.823721,617.714816 L577.930585,616.996849 L581.715105,617.176897 L583.60649,617.894863 L579.823721,617.714816 Z M50.7036205,603.728909 L51.9645436,602.65307 L53.2254667,603.371037 L52.5950051,604.446876 L50.7036205,603.728909 Z M254.405744,650.167811 L254.405744,649.272019 L256.92759,649.809938 L257.558051,650.70573 L254.405744,650.167811 Z M511.712859,629.72687 L508.5588,629.011125 L512.343321,629.011125 L514.865167,629.368998 L511.712859,629.72687 Z M640.996003,573.60764 L643.5196,573.965512 L642.889138,574.863526 L640.365541,574.325607 L640.996003,573.60764 Z M536.307864,631.520676 L538.199249,632.238642 L535.046941,632.238642 L533.153805,631.520676 L536.307864,631.520676 Z M46.9191,614.667346 L47.5495615,613.769332 L49.4409462,614.307252 L50.073159,615.205266 L46.9191,614.667346 Z M589.912856,572.711848 L591.175531,571.993882 L593.066915,572.711848 L589.912856,573.427593 L589.912856,572.711848 Z M531.262421,599.785648 L530.631959,598.887634 L533.786018,599.067681 L533.786018,599.785648 L531.262421,599.785648 Z M173.680397,502.606712 L177.464918,502.964584 L174.310859,503.860376 L173.680397,502.606712 Z M697.755054,561.773411 L700.909113,561.953459 L698.387267,562.491378 L695.233208,562.491378 L697.755054,561.773411 Z M495.946067,630.444837 L495.315605,629.368998 L497.837451,629.906917 L498.467913,630.802709 L495.946067,630.444837 Z M321.253931,577.015204 L320.623469,576.11719 L323.147067,576.477285 L324.40799,577.373077 L321.253931,577.015204 Z M411.437951,667.559059 L414.59201,667.201187 L413.329336,668.096979 L409.546567,668.096979 L411.437951,667.559059 Z M451.169287,631.878548 L454.953808,632.416467 L451.799749,633.134434 L451.169287,631.878548 Z M473.242446,619.328575 L475.133831,619.328575 L475.764292,620.404414 L473.242446,620.224366 L473.242446,619.328575 Z M567.841449,603.551084 L571.624218,604.266829 L566.578774,604.446876 L567.841449,603.551084 Z M358.463421,658.774522 L360.985267,658.774522 L360.985267,659.670314 L357.832959,659.312442 L358.463421,658.774522 Z M493.424221,658.952347 L496.576528,659.312442 L492.792008,660.208234 L493.424221,658.952347 Z M608.833708,666.663268 L611.355554,666.663268 L610.725092,667.559059 L608.203246,667.381234 L608.833708,666.663268 Z M299.180772,640.127388 L302.334831,640.127388 L299.811233,640.843132 L297.289387,641.023179 L299.180772,640.127388 Z M629.013731,589.565178 L629.013731,588.669386 L631.537328,589.38513 L629.644192,590.283144 L629.013731,589.565178 Z M317.471162,645.146488 L319.993008,645.684407 L319.993008,646.402374 L318.101623,646.402374 L317.471162,645.146488 Z M592.436454,583.110144 L596.220974,582.572224 L593.697377,584.005935 L592.436454,583.110144 Z M564.056928,615.025219 L563.426467,614.129427 L565.948313,614.487299 L567.209236,615.205266 L564.056928,615.025219 Z M422.1593,604.984796 L424.681146,603.908957 L424.681146,605.522715 L422.1593,604.984796 Z M516.12609,683.874469 L518.019226,684.950308 L512.973782,684.234564 L516.12609,683.874469 Z M39.3518103,601.577231 L41.8736564,602.295198 L36.1977513,602.295198 L39.3518103,601.577231 Z M521.171533,601.039312 L523.695131,600.323567 L523.064669,601.399406 L521.171533,601.937326 L521.171533,601.039312 Z M342.066167,683.158725 L346.481149,683.336549 L342.066167,684.054516 L342.066167,683.158725 Z M500.99151,628.473206 L499.730587,627.755239 L502.252433,627.755239 L503.513356,628.651031 L500.99151,628.473206 Z M107.462672,543.306324 L108.093133,542.410532 L109.984518,542.768404 L109.354056,543.664196 L107.462672,543.306324 Z M301.704369,577.373077 L304.226215,577.550901 L303.595754,578.088821 L299.811233,577.910996 L301.704369,577.373077 Z M458.736577,608.390137 L460.629713,607.852218 L460.629713,608.750232 L457.475654,609.288152 L458.736577,608.390137 Z M664.331836,559.083814 L666.853682,559.443908 L666.223221,559.981828 L663.699623,559.801781 L663.699623,559.443908 L664.331836,559.083814 Z M441.0784,497.04747 L443.601997,497.405342 L442.971536,497.943261 L440.447938,497.765436 L440.447938,497.405342 L441.0784,497.04747 Z M682.620474,594.046358 L683.881397,595.302245 L681.990013,595.302245 L681.359551,594.406453 L682.620474,594.046358 Z M214.674408,580.062674 L215.935331,579.16466 L217.826715,580.778418 L214.674408,580.062674 Z M516.758303,518.562027 L518.649687,519.460041 L514.865167,519.637866 L516.758303,518.562027 Z M119.444944,561.415539 L120.075405,560.519747 L121.96679,561.235492 L120.705867,561.953459 L119.444944,561.415539 Z M50.073159,679.931208 L50.7036205,679.035416 L52.5950051,679.75116 L51.3340821,680.469127 L50.073159,679.931208 Z M343.32709,657.876508 L340.805244,658.594475 L338.281646,657.876508 L343.32709,657.876508 Z M359.093882,673.656221 L361.615728,673.296126 L361.615728,674.014093 L359.093882,674.371965 L359.093882,673.656221 Z M595.588762,666.125348 L598.110608,666.125348 L598.110608,665.407381 L595.588762,665.407381 L595.588762,666.125348 Z M436.032956,537.749304 L438.554803,537.749304 L438.554803,537.031337 L436.032956,537.031337 L436.032956,537.749304 Z M337.020723,676.165771 L338.912108,676.883738 L336.390262,676.883738 L334.498877,676.165771 L337.020723,676.165771 Z M486.485641,661.821992 L489.009238,662.179864 L485.224718,663.077878 L486.485641,661.821992 Z M547.029213,495.971631 L543.875154,495.433711 L550.181521,495.433711 L547.029213,495.971631 Z M149.715854,506.192101 L152.869913,507.087893 L150.346315,507.445765 L149.715854,506.192101 Z M614.509613,581.676433 L614.509613,582.214352 L611.355554,582.392177 L611.355554,581.854257 L614.509613,581.676433 Z M514.234705,606.598554 L517.388764,606.598554 L517.388764,606.060635 L514.234705,606.060635 L514.234705,606.598554 Z M305.487138,676.345818 L307.380274,677.421657 L302.965292,676.703691 L305.487138,676.345818 Z M403.2402,670.786576 L405.762046,671.144448 L402.609738,672.042463 L403.2402,670.786576 Z M38.0908872,505.294087 L37.4586744,506.192101 L34.3063667,505.294087 L38.0908872,505.294087 Z M488.378777,654.291119 L486.485641,653.21528 L488.378777,653.21528 L489.009238,654.111072 L492.161546,654.291119 L488.378777,654.291119 Z M509.189262,682.79863 L512.343321,682.79863 L512.343321,683.874469 L509.189262,682.79863 Z M470.7206,621.838125 L471.351062,622.733916 L468.197003,623.631931 L470.7206,621.838125 Z M212.781272,639.051549 L212.781272,639.94734 L208.998503,639.409421 L212.781272,639.051549 Z M398.194756,684.412388 L399.455679,685.310403 L396.301621,685.668275 L398.194756,684.412388 Z M492.161546,565.000928 L494.054682,565.89672 L491.531085,566.434639 L492.161546,565.000928 Z M246.836703,658.056556 L249.3603,658.236603 L246.206241,659.312442 L246.836703,658.056556 Z M465.044695,685.488227 L468.197003,685.848322 L463.782021,686.386242 L465.044695,685.488227 Z M38.7213487,587.593547 L42.5041179,587.771372 L39.3518103,588.489339 L38.7213487,587.593547 Z M690.818226,570.022251 L688.296379,569.304284 L693.341823,569.484331 L690.818226,570.022251 Z M673.160049,585.979788 L676.944569,586.695533 L672.529587,586.695533 L673.160049,585.979788 Z M603.157803,607.494346 L600.634205,608.212313 L600.003744,607.136474 L603.157803,607.494346 Z M693.341823,653.933247 L695.863669,653.933247 L695.233208,654.648991 L693.341823,654.648991 L693.341823,653.933247 Z M523.695131,598.709809 L526.216977,598.709809 L525.586515,599.425553 L523.695131,599.425553 L523.695131,598.709809 Z M357.202497,672.400335 L354.6789,671.682368 L360.354805,672.042463 L357.202497,672.400335 Z M277.739826,682.262933 L279.000749,681.544966 L280.261672,682.082886 L279.000749,682.79863 L277.739826,682.262933 Z M595.588762,603.013165 L598.112359,603.728909 L594.327838,603.908957 L595.588762,603.013165 Z M121.336328,551.552941 L125.120849,551.913036 L123.859926,552.62878 L121.336328,551.552941 Z M497.20699,559.981828 L499.730587,560.159653 L497.837451,561.235492 L497.20699,559.981828 Z M547.659674,631.520676 L550.181521,631.520676 L550.181521,632.058595 L547.029213,632.058595 L547.659674,631.520676 Z M294.135328,562.669203 L297.289387,562.84925 L296.028464,563.745042 L294.135328,562.669203 Z M500.361049,656.800669 L503.513356,657.160764 L502.882895,658.056556 L500.361049,656.800669 Z M323.147067,649.809938 L323.777528,649.091972 L325.038451,649.629891 L325.038451,650.525683 L323.147067,649.809938 Z M309.271659,651.601522 L312.425718,651.961616 L310.532582,652.677361 L309.271659,651.601522 Z M291.613482,671.144448 L294.767541,671.324496 L290.983021,672.042463 L291.613482,671.144448 Z M475.764292,663.793623 L478.28789,664.869462 L475.133831,664.691637 L475.764292,663.793623 Z M524.956054,619.508622 L526.847438,620.224366 L521.801995,619.866494 L524.956054,619.508622 Z M36.1977513,646.044502 L35.5672897,645.146488 L39.3518103,646.044502 L36.1977513,646.044502 Z M372.337077,659.670314 L375.491136,660.388281 L372.337077,660.566106 L372.337077,659.670314 Z M241.791259,647.478213 L244.945318,647.836085 L241.791259,648.374005 L241.791259,647.478213 Z M531.262421,638.513629 L531.262421,639.409421 L528.110113,638.871501 L531.262421,638.513629 Z M321.884392,661.641945 L325.038451,662.179864 L321.884392,662.539959 L321.884392,661.641945 Z M371.706615,684.772483 L374.860674,684.234564 L371.706615,685.668275 L371.706615,684.772483 Z M129.535831,605.880587 L132.688138,606.060635 L129.535831,606.778601 L129.535831,605.880587 Z M420.267915,676.165771 L417.744318,676.703691 L415.852933,675.985724 L420.267915,676.165771 Z M37.4586744,676.345818 L38.0908872,677.061563 L34.3063667,677.24161 L37.4586744,676.345818 Z M512.343321,639.409421 L514.234705,640.127388 L517.388764,639.767293 L516.758303,640.305212 L513.604244,640.305212 L512.343321,639.409421 Z M403.2402,655.547006 L406.392508,655.366958 L405.762046,656.084925 L404.501123,656.084925 L403.2402,655.547006 Z M40.6127333,637.43779 L43.765041,637.795662 L40.6127333,638.333582 L40.6127333,637.43779 Z M690.818226,676.883738 L692.70961,676.883738 L692.70961,676.165771 L690.818226,676.165771 L690.818226,676.883738 Z M270.801246,649.629891 L270.801246,650.70573 L268.2794,649.809938 L270.801246,649.629891 Z M305.487138,677.77953 L308.010736,678.497496 L303.595754,678.317449 L305.487138,677.77953 Z M71.5141051,539.720934 L69.6227205,540.616726 L67.7313359,540.078807 L71.5141051,539.720934 Z M38.0908872,630.444837 L38.0908872,631.520676 L35.5672897,630.802709 L38.0908872,630.444837 Z M385.582023,672.580382 L387.473408,672.580382 L387.473408,671.862415 L385.582023,671.862415 L385.582023,672.580382 Z M592.436454,591.716856 L594.9583,591.716856 L594.9583,591.178936 L592.436454,591.178936 L592.436454,591.716856 Z M349.633456,673.118301 L352.155303,673.118301 L352.155303,672.580382 L349.633456,672.580382 L349.633456,673.118301 Z M460.629713,542.230485 L463.151559,542.230485 L463.151559,541.692565 L460.629713,541.692565 L460.629713,542.230485 Z M557.1201,597.63397 L559.641946,597.63397 L559.641946,597.096051 L557.1201,597.096051 L557.1201,597.63397 Z M530.631959,592.792695 L532.523344,592.792695 L532.523344,592.074728 L530.631959,592.074728 L530.631959,592.792695 Z M620.815979,574.14556 L623.337826,574.14556 L623.337826,573.60764 L620.815979,573.60764 L620.815979,574.14556 Z M569.102372,618.970702 L570.993756,618.970702 L570.993756,618.252736 L569.102372,618.252736 L569.102372,618.970702 Z M309.271659,643.354904 L311.795256,643.354904 L310.532582,644.070649 L309.271659,644.070649 L309.271659,643.354904 Z M648.565044,582.392177 L651.08689,582.930096 L648.565044,583.468016 L648.565044,582.392177 Z M255.666667,661.46412 L259.449436,660.746153 L257.558051,661.284073 L257.558051,662.359912 L255.666667,661.46412 Z M169.897628,496.329503 L173.680397,496.329503 L173.680397,497.04747 L169.897628,496.329503 Z M321.884392,685.668275 L319.362546,684.950308 L324.40799,685.310403 L321.884392,685.668275 Z M408.916105,501.170778 L407.022969,501.888745 L405.131585,501.170778 L408.916105,501.170778 Z M486.485641,557.650103 L488.378777,558.368069 L486.485641,559.083814 L486.485641,557.650103 Z M64.5772769,680.469127 L67.1008744,681.364919 L64.5772769,681.544966 L64.5772769,680.469127 Z M304.226215,671.504543 L306.119351,672.580382 L303.595754,672.580382 L304.226215,671.504543 Z M537.568787,685.668275 L537.568787,686.386242 L533.786018,685.848322 L537.568787,685.668275 Z M493.424221,663.255703 L491.531085,664.331542 L490.270162,663.615798 L493.424221,663.255703 Z M520.541072,646.760246 L523.064669,647.298166 L520.541072,647.298166 L518.019226,646.760246 L520.541072,646.760246 Z M480.809736,555.318377 L478.918351,554.602633 L482.702872,554.602633 L480.809736,555.318377 Z M537.568787,622.376044 L535.046941,623.094011 L533.786018,622.376044 L537.568787,622.376044 Z M328.190759,668.634898 L326.929836,669.352865 L324.40799,668.634898 L328.190759,668.634898 Z M615.770536,594.046358 L615.140074,594.584278 L611.355554,593.688486 L615.770536,594.046358 Z M109.984518,551.913036 L113.138577,552.09086 L111.245441,552.808827 L109.984518,551.913036 Z M696.494131,507.087893 L698.387267,507.445765 L695.863669,508.343779 L696.494131,507.087893 Z M84.1285897,568.586317 L85.3895128,569.304284 L82.8659154,569.842204 L84.1285897,568.586317 Z M702.170036,601.577231 L703.430959,602.65307 L700.909113,602.475245 L702.170036,601.577231 Z M595.588762,579.882627 L598.112359,580.240499 L594.9583,580.778418 L595.588762,579.882627 Z M446.754305,558.545894 L449.908364,558.905989 L449.277903,559.621733 L446.754305,558.545894 Z M683.250936,562.84925 L685.772782,563.207122 L682.620474,563.745042 L683.250936,562.84925 Z M687.665918,592.074728 L690.818226,592.254775 L689.557303,592.970519 L687.665918,592.074728 Z M594.9583,601.577231 L598.112359,601.757279 L596.851436,602.475245 L594.9583,601.577231 Z M407.653431,666.305395 L408.916105,665.407381 L410.177028,666.48322 L407.653431,666.305395 Z M139.624967,554.064713 L142.779026,554.242538 L138.364044,554.780458 L139.624967,554.064713 Z M417.744318,649.987763 L416.483395,651.063602 L415.222472,650.167811 L417.744318,649.987763 Z M545.76829,684.950308 L548.290136,685.130355 L545.137828,685.848322 L545.76829,684.950308 Z M519.280149,527.168739 L521.801995,527.348786 L518.649687,528.066753 L519.280149,527.168739 Z M302.334831,647.298166 L304.226215,647.836085 L301.073908,648.19618 L302.334831,647.298166 Z M398.194756,576.297238 L400.716603,576.477285 L400.086141,577.373077 L398.194756,576.297238 Z M38.7213487,626.321528 L41.2431949,626.141481 L41.8736564,627.037272 L38.7213487,626.321528 Z M50.073159,681.725013 L51.9645436,681.007047 L51.9645436,682.262933 L50.073159,681.725013 Z M558.381023,681.007047 L560.272408,681.007047 L560.272408,681.544966 L557.750562,681.544966 L558.381023,681.007047 Z M194.492633,582.572224 L193.862172,583.290191 L190.708113,583.110144 L194.492633,582.572224 Z M407.022969,568.048398 L407.653431,569.124237 L405.131585,568.586317 L407.022969,568.048398 Z M295.398003,648.911924 L297.919849,649.449844 L293.504867,649.449844 L295.398003,648.911924 Z M464.412482,596.020212 L466.305618,596.558131 L464.412482,597.273875 L464.412482,596.020212 Z M80.3440692,495.971631 L80.9745308,496.689597 L77.8204718,496.867422 L80.3440692,495.971631 Z M616.400997,571.09809 L618.924595,571.09809 L618.924595,571.993882 L616.400997,571.09809 Z M99.8936308,547.60968 L102.417228,547.60968 L99.8936308,548.505471 L99.8936308,547.60968 Z M639.735079,582.572224 L638.474156,583.648063 L637.213233,582.930096 L639.735079,582.572224 Z M307.380274,656.26275 L310.532582,656.26275 L309.902121,656.980717 L307.380274,656.26275 Z M115.660423,553.166699 L118.184021,552.808827 L116.921346,553.884666 L115.660423,553.166699 Z M571.624218,579.16466 L574.778277,579.344707 L571.624218,579.882627 L571.624218,579.16466 Z M541.983769,514.798813 L540.722846,515.514557 L538.82971,514.798813 L541.983769,514.798813 Z M43.765041,607.674393 L45.0277154,606.956426 L46.2886385,608.032265 L43.765041,607.674393 Z M100.524092,550.657149 L102.417228,551.552941 L99.8936308,551.552941 L100.524092,550.657149 Z M312.425718,671.682368 L314.947564,671.682368 L313.686641,672.580382 L312.425718,671.682368 Z M640.365541,498.481181 L642.889138,498.481181 L642.258677,499.379195 L640.365541,498.481181 Z M652.347813,573.787687 L654.240949,574.14556 L651.717351,574.863526 L652.347813,573.787687 Z M593.066915,621.12238 L594.9583,621.838125 L591.805992,621.838125 L593.066915,621.12238 Z M104.939074,612.693493 L108.093133,612.693493 L108.093133,612.335621 L104.939074,612.335621 L104.939074,612.693493 Z M330.083895,662.002039 L329.453433,662.897831 L326.929836,662.897831 L330.083895,662.002039 Z M42.5041179,594.764325 L42.5041179,595.482292 L39.3518103,595.302245 L42.5041179,594.764325 Z M111.245441,550.477102 L111.245441,549.761358 L114.3995,550.657149 L111.245441,550.477102 Z M153.500374,579.882627 L156.652682,580.600594 L153.500374,580.600594 L153.500374,579.882627 Z M552.705118,575.401446 L555.857426,576.297238 L554.596503,576.65511 L552.705118,575.401446 Z M310.532582,659.132395 L313.686641,659.132395 L312.425718,659.850361 L310.532582,659.132395 Z M376.752059,542.588357 L378.643444,542.588357 L378.012982,543.306324 L376.752059,543.306324 L376.752059,542.588357 Z M610.094631,575.221399 L611.355554,575.221399 L611.355554,575.939365 L609.464169,575.939365 L610.094631,575.221399 Z M522.434208,534.519564 L520.541072,533.623773 L523.064669,533.623773 L522.434208,534.519564 Z M604.418726,571.275915 L606.940572,571.275915 L603.788264,572.173929 L604.418726,571.275915 Z M370.445692,662.359912 L372.337077,662.539959 L371.076154,663.615798 L370.445692,662.359912 Z M381.797503,547.60968 L384.94981,548.505471 L381.167041,548.147599 L381.797503,547.60968 Z M634.689636,661.104025 L634.689636,662.002039 L632.16779,662.179864 L634.689636,661.104025 Z M453.060672,683.874469 L456.214731,683.874469 L451.799749,684.592436 L453.060672,683.874469 Z M458.736577,623.271836 L460.629713,623.451883 L457.475654,624.347675 L458.736577,623.271836 Z M688.926841,678.137402 L691.448687,678.497496 L688.926841,679.035416 L688.926841,678.137402 Z M36.8282128,632.776562 L38.0908872,631.878548 L38.7213487,633.134434 L36.8282128,632.776562 Z M625.861423,683.874469 L628.383269,684.412388 L625.230962,684.592436 L625.861423,683.874469 Z M665.592759,577.193029 L668.745067,577.373077 L663.069162,577.730949 L665.592759,577.193029 Z M246.206241,653.395328 L249.3603,653.21528 L248.729838,653.933247 L246.206241,653.395328 Z M526.216977,630.624884 L528.740574,631.520676 L526.847438,631.700723 L526.216977,630.624884 Z M567.841449,684.592436 L565.948313,684.054516 L569.732833,684.054516 L567.841449,684.592436 Z M623.968287,578.088821 L622.707364,578.806788 L620.815979,578.268868 L623.968287,578.088821 Z M504.143818,594.046358 L506.667415,594.226406 L502.882895,594.764325 L504.143818,594.046358 Z M210.259426,517.666235 L210.889887,516.950491 L212.781272,518.024107 L210.259426,517.666235 Z M41.2431949,652.139441 L43.1345795,653.21528 L40.6127333,652.857408 L41.2431949,652.139441 Z M473.242446,649.987763 L475.133831,649.987763 L473.872908,651.063602 L473.242446,649.987763 Z M321.884392,566.614687 L322.514854,567.332654 L319.362546,566.972559 L321.884392,566.614687 Z M70.2531821,553.884666 L69.6227205,554.602633 L67.1008744,554.242538 L70.2531821,553.884666 Z M546.398751,607.316521 L548.290136,607.316521 L548.290136,606.778601 L546.398751,606.778601 L546.398751,607.316521 Z M76.5595487,617.534769 L79.7136077,617.714816 L77.8204718,618.252736 L76.5595487,617.534769 Z M323.777528,658.056556 L325.038451,658.594475 L322.514854,659.132395 L323.777528,658.056556 Z M497.837451,652.857408 L499.098374,653.7532 L496.576528,653.573152 L497.837451,652.857408 Z M277.107613,646.760246 L279.000749,646.402374 L279.000749,647.478213 L277.107613,646.760246 Z M215.304869,685.130355 L211.520349,685.848322 L211.520349,685.310403 L215.304869,685.130355 Z M242.421721,643.354904 L239.269413,644.070649 L238.00849,643.712777 L242.421721,643.354904 Z M210.259426,595.840164 L211.520349,595.840164 L211.520349,596.378084 L208.998503,596.378084 L210.259426,595.840164 Z M451.799749,686.386242 L453.691133,686.386242 L453.691133,685.848322 L451.799749,685.848322 L451.799749,686.386242 Z M417.744318,594.226406 L419.635703,594.226406 L419.635703,593.688486 L417.744318,593.688486 L417.744318,594.226406 Z M528.740574,555.318377 L530.631959,555.318377 L530.631959,554.780458 L528.740574,554.780458 L528.740574,555.318377 Z M436.665169,583.110144 L438.556554,583.110144 L438.556554,582.572224 L436.665169,582.572224 L436.665169,583.110144 Z M529.371036,684.950308 L531.262421,684.950308 L531.262421,684.412388 L529.371036,684.412388 L529.371036,684.950308 Z M200.799,664.51159 L200.168538,665.049509 L197.014479,664.51159 L200.799,664.51159 Z M687.035456,582.572224 L688.296379,582.572224 L688.296379,583.290191 L686.403244,583.110144 L687.035456,582.572224 Z M43.765041,678.497496 L46.2886385,678.855369 L45.6581769,679.573335 L43.765041,678.497496 Z M46.2886385,514.618766 L48.1800231,514.618766 L48.1800231,514.080846 L46.2886385,514.080846 L46.2886385,514.618766 Z M77.8204718,565.000928 L79.7118564,565.000928 L79.7118564,564.463009 L77.8204718,564.463009 L77.8204718,565.000928 Z M547.659674,581.496385 L550.181521,581.316338 L551.444195,582.034305 L547.659674,581.496385 Z M604.418726,601.039312 L603.788264,601.577231 L600.634205,601.039312 L604.418726,601.039312 Z M453.692885,646.760246 L455.584269,646.760246 L455.584269,647.836085 L453.692885,646.760246 Z M318.101623,660.388281 L320.623469,660.9262 L318.732085,661.284073 L318.101623,660.388281 Z M226.026218,664.51159 L228.548064,664.691637 L225.394005,665.229556 L226.026218,664.51159 Z M639.735079,496.151678 L639.104618,497.04747 L637.213233,496.689597 L639.735079,496.151678 Z M640.996003,589.207305 L642.889138,588.847211 L643.5196,589.745225 L640.996003,589.207305 Z M45.0277154,653.7532 L45.6581769,652.857408 L46.9191,654.111072 L45.0277154,653.7532 Z M436.032956,560.519747 L439.187015,560.3397 L437.295631,561.057667 L436.032956,560.519747 Z M584.236951,582.572224 L585.499626,583.82811 L583.60649,583.468016 L584.236951,582.572224 Z M677.575031,573.427593 L679.466415,573.787687 L678.835954,574.683479 L677.575031,573.427593 Z M503.513356,633.672354 L500.99151,633.852401 L498.467913,633.314481 L503.513356,633.672354 Z M698.387267,592.970519 L698.387267,593.688486 L695.863669,593.150567 L698.387267,592.970519 Z M656.762795,577.550901 L658.023718,578.268868 L655.501872,578.268868 L656.762795,577.550901 Z M339.542569,681.725013 L342.066167,682.79863 L338.281646,681.902838 L339.542569,681.725013 Z M618.924595,496.329503 L621.446441,496.329503 L621.446441,497.04747 L618.924595,496.329503 Z M523.064669,510.853329 L524.325592,511.571296 L521.801995,511.571296 L523.064669,510.853329 Z M427.204744,651.601522 L428.465667,652.319489 L425.943821,652.319489 L427.204744,651.601522 Z M508.5588,684.412388 L509.819723,685.130355 L507.297877,685.130355 L508.5588,684.412388 Z M483.963795,667.739107 L486.485641,667.739107 L486.485641,668.454851 L483.963795,667.739107 Z M67.7313359,542.588357 L70.2531821,542.588357 L70.2531821,543.306324 L67.7313359,542.588357 Z M499.098374,636.361951 L501.621972,637.079918 L499.098374,637.079918 L499.098374,636.361951 Z M285.937577,582.572224 L288.459423,582.572224 L288.459423,583.290191 L285.937577,582.572224 Z M377.382521,567.152606 L378.643444,567.870573 L376.121597,567.870573 L377.382521,567.152606 Z M567.209236,532.547934 L565.948313,531.832189 L569.102372,532.190062 L567.209236,532.547934 Z M637.843695,594.944373 L640.365541,595.302245 L637.843695,595.660117 L637.843695,594.944373 Z M552.705118,655.009086 L555.226964,654.648991 L555.226964,655.366958 L552.705118,655.009086 Z M698.387267,650.885777 L698.387267,650.167811 L700.909113,651.24365 L698.387267,650.885777 Z M699.017728,571.993882 L699.017728,572.711848 L696.494131,572.711848 L699.017728,571.993882 Z M620.185518,596.378084 L622.707364,596.198036 L622.707364,596.916003 L620.185518,596.378084 Z M480.809736,670.068609 L483.333333,670.786576 L480.809736,670.786576 L480.809736,670.068609 Z M77.8204718,554.064713 L77.8204718,554.780458 L75.2986256,554.242538 L77.8204718,554.064713 Z M419.005241,531.114223 L421.528838,531.114223 L420.898377,531.832189 L419.005241,531.114223 Z M562.796005,636.719823 L565.317851,637.079918 L561.533331,637.257743 L562.796005,636.719823 Z M526.216977,677.24161 L527.4779,677.24161 L527.4779,677.77953 L525.586515,677.77953 L526.216977,677.24161 Z M503.513356,620.762286 L506.036954,620.584461 L502.882895,621.480253 L503.513356,620.762286 Z M523.064669,513.542927 L524.325592,514.080846 L521.171533,514.080846 L523.064669,513.542927 Z M311.795256,660.566106 L311.795256,661.104025 L308.641197,661.104025 L311.795256,660.566106 Z M279.000749,567.870573 L280.892133,568.766365 L279.000749,568.766365 L279.000749,567.870573 Z M452.43021,643.174857 L453.060672,642.45689 L454.323346,643.712777 L452.43021,643.174857 Z M337.651185,496.867422 L339.542569,495.971631 L337.651185,497.765436 L337.651185,496.867422 Z M47.5495615,601.399406 L48.8104846,601.399406 L48.8104846,601.937326 L46.9191,601.937326 L47.5495615,601.399406 Z M220.350313,660.9262 L222.241697,660.9262 L221.611236,661.821992 L220.350313,660.9262 Z M162.959049,504.936215 L164.221723,505.832006 L162.328587,505.832006 L162.959049,504.936215 Z M559.641946,600.14352 L557.750562,600.323567 L555.857426,601.039312 L555.857426,600.323567 L559.641946,600.14352 Z M326.929836,681.902838 L328.822972,682.79863 L326.929836,682.79863 L326.929836,681.902838 Z M36.8282128,618.432783 L38.7213487,618.432783 L38.7213487,619.328575 L36.8282128,618.432783 Z M159.176279,521.0738 L161.698126,521.251624 L159.806741,521.789544 L159.176279,521.0738 Z M350.894379,560.519747 L349.633456,559.981828 L352.787515,559.981828 L350.894379,560.519747 Z M66.4686615,609.288152 L67.7313359,609.288152 L67.7313359,609.826071 L65.8382,609.826071 L66.4686615,609.288152 Z M55.7490641,610.721863 L57.6404487,610.721863 L55.7490641,611.617654 L55.7490641,610.721863 Z M103.678151,558.188022 L105.569536,558.188022 L104.939074,559.083814 L103.678151,558.188022 Z M659.916854,580.778418 L663.069162,580.600594 L663.069162,581.138513 L659.916854,580.778418 Z M482.07241,638.513629 L483.963795,639.409421 L482.07241,639.409421 L482.07241,638.513629 Z M625.861423,592.434822 L627.752808,592.970519 L624.6005,592.970519 L625.861423,592.434822 Z M579.193259,597.63397 L581.084644,597.63397 L579.193259,598.529762 L579.193259,597.63397 Z M416.483395,503.144631 L417.744318,503.144631 L417.744318,503.680328 L415.852933,503.680328 L416.483395,503.144631 Z M365.400249,588.669386 L367.291633,588.669386 L366.661172,589.207305 L365.400249,589.207305 L365.400249,588.669386 Z M430.989264,498.841275 L432.250187,498.841275 L432.250187,499.379195 L430.357051,499.379195 L430.989264,498.841275 Z M487.748315,626.859448 L489.009238,627.575192 L485.224718,626.6794 L487.748315,626.859448 Z M582.345567,591.716856 L581.084644,592.434822 L579.823721,591.896903 L582.345567,591.716856 Z M92.326341,656.26275 L91.6958795,656.980717 L89.8044949,656.622845 L92.326341,656.26275 Z M461.260174,645.326535 L460.629713,646.044502 L458.736577,645.684407 L461.260174,645.326535 Z M474.503369,564.643056 L477.026967,565.538848 L473.872908,565.000928 L474.503369,564.643056 Z M41.8736564,610.721863 L43.765041,610.90191 L41.2431949,611.43983 L41.8736564,610.721863 Z M552.074656,656.980717 L552.705118,657.876508 L550.813733,657.518636 L552.074656,656.980717 Z M458.736577,659.132395 L460.629713,659.850361 L458.106115,659.670314 L458.736577,659.132395 Z M456.214731,619.686447 L458.106115,619.686447 L458.106115,619.328575 L456.214731,619.328575 L456.214731,619.686447 Z M677.575031,683.696644 L678.835954,683.696644 L678.835954,683.158725 L677.575031,683.158725 L677.575031,683.696644 Z M610.725092,571.275915 L612.616477,571.275915 L612.616477,570.918043 L610.725092,570.918043 L610.725092,571.275915 Z M633.428713,586.695533 L632.16779,586.157613 L634.689636,586.157613 L633.428713,586.695533 Z M500.361049,601.757279 L502.252433,601.757279 L502.252433,601.399406 L500.361049,601.399406 L500.361049,601.757279 Z M70.2531821,560.159653 L72.1445667,560.159653 L70.8836436,560.87762 L70.2531821,560.159653 Z M603.788264,584.903949 L606.31011,584.723902 L606.31011,585.261822 L603.788264,584.903949 Z M540.092385,600.323567 L541.983769,600.323567 L541.983769,601.039312 L540.092385,600.323567 Z M44.3972538,599.605601 L46.9191,599.605601 L45.6581769,600.14352 L44.3972538,599.605601 Z M702.170036,598.17189 L703.430959,598.17189 L703.430959,597.63397 L702.170036,597.63397 L702.170036,598.17189 Z M577.930585,684.054516 L580.454182,684.054516 L580.454182,684.592436 L577.930585,684.054516 Z M593.697377,584.36603 L596.220974,584.36603 L595.588762,584.903949 L593.697377,584.36603 Z M644.150062,514.080846 L645.410985,514.080846 L645.410985,513.542927 L644.150062,513.542927 L644.150062,514.080846 Z M223.502621,667.379012 L225.394005,667.379012 L225.394005,667.02114 L223.502621,667.02114 L223.502621,667.379012 Z M644.150062,606.418507 L645.410985,606.418507 L645.410985,605.880587 L644.150062,605.880587 L644.150062,606.418507 Z M169.267167,592.970519 L171.158551,592.970519 L171.158551,592.612647 L169.267167,592.612647 L169.267167,592.970519 Z M606.940572,591.178936 L606.940572,591.716856 L604.418726,591.536808 L606.940572,591.178936 Z M304.856677,640.843132 L306.119351,641.561099 L304.226215,641.561099 L304.856677,640.843132 Z M244.314856,584.543855 L245.575779,584.543855 L245.575779,584.005935 L244.314856,584.005935 L244.314856,584.543855 Z M55.7490641,498.303356 L57.6404487,498.303356 L57.6404487,499.0191 L55.7490641,498.303356 Z M40.6127333,608.570185 L42.5041179,609.288152 L40.6127333,609.288152 L40.6127333,608.570185 Z M420.898377,678.317449 L423.420223,678.855369 L420.898377,678.855369 L420.898377,678.317449 Z M526.216977,644.968663 L527.4779,644.968663 L527.4779,644.430743 L526.216977,644.430743 L526.216977,644.968663 Z M572.254679,599.605601 L574.147815,599.067681 L574.778277,599.605601 L572.254679,599.605601 Z M66.4686615,524.479141 L68.3617974,525.197108 L66.4686615,525.197108 L66.4686615,524.479141 Z M311.795256,580.240499 L313.056179,580.240499 L313.056179,579.702579 L311.795256,579.702579 L311.795256,580.240499 Z M456.214731,503.502504 L458.106115,503.502504 L458.106115,503.144631 L456.214731,503.144631 L456.214731,503.502504 Z M528.740574,640.305212 L531.262421,640.843132 L528.740574,640.843132 L528.740574,640.305212 Z M586.130087,577.910996 L586.130087,578.268868 L582.345567,578.088821 L586.130087,577.910996 Z M241.160797,659.490267 L243.053933,659.490267 L243.053933,660.208234 L241.160797,659.490267 Z M703.430959,604.266829 L705.322344,604.266829 L705.322344,603.908957 L703.430959,603.908957 L703.430959,604.266829 Z M70.8836436,522.865383 L72.7767795,522.865383 L71.5141051,523.58335 L70.8836436,522.865383 Z M207.105367,685.668275 L208.998503,685.668275 L208.998503,686.386242 L207.105367,685.668275 Z M622.076903,500.455034 L624.6005,500.455034 L623.337826,500.992953 L622.076903,500.455034 Z M518.019226,594.046358 L519.280149,594.046358 L519.280149,593.508439 L518.019226,593.508439 L518.019226,594.046358 Z M123.859926,534.699612 L125.120849,534.699612 L125.120849,534.161692 L123.859926,534.161692 L123.859926,534.699612 Z M495.315605,650.167811 L496.576528,650.70573 L494.054682,650.70573 L495.315605,650.167811 Z M77.8204718,684.232341 L79.7118564,684.232341 L79.7118564,683.874469 L77.8204718,683.874469 L77.8204718,684.232341 Z M37.4586744,571.813834 L39.3518103,571.813834 L38.7213487,572.531801 L37.4586744,571.813834 Z M659.286392,603.908957 L661.808238,603.908957 L661.808238,604.446876 L659.286392,603.908957 Z M596.220974,536.85129 L598.112359,536.85129 L598.112359,536.493418 L596.220974,536.493418 L596.220974,536.85129 Z M382.427964,659.670314 L384.94981,660.208234 L382.427964,660.208234 L382.427964,659.670314 Z M479.548813,578.806788 L480.809736,578.806788 L480.809736,578.268868 L479.548813,578.268868 L479.548813,578.806788 Z M471.981523,645.146488 L473.872908,645.146488 L473.872908,645.864455 L471.981523,645.146488 Z M528.110113,595.660117 L530.631959,595.660117 L528.110113,596.198036 L528.110113,595.660117 Z M280.892133,673.476174 L282.783518,674.19414 L280.892133,674.19414 L280.892133,673.476174 Z M70.2531821,536.31337 L72.7767795,536.31337 L70.2531821,536.85129 L70.2531821,536.31337 Z M634.689636,604.984796 L637.213233,605.522715 L634.689636,605.522715 L634.689636,604.984796 Z M449.277903,658.952347 L450.538826,658.952347 L450.538826,658.414428 L449.277903,658.414428 L449.277903,658.952347 Z M40.6127333,535.057484 L43.1345795,535.237531 L40.6127333,535.595403 L40.6127333,535.057484 Z M264.494879,658.774522 L265.755803,658.774522 L265.755803,658.236603 L264.494879,658.236603 L264.494879,658.774522 Z M103.678151,505.654182 L104.939074,505.654182 L104.939074,505.116262 L103.678151,505.116262 L103.678151,505.654182 Z M281.522595,664.51159 L284.046192,665.049509 L281.522595,665.049509 L281.522595,664.51159 Z M408.916105,653.395328 L410.177028,653.395328 L410.177028,652.857408 L408.916105,652.857408 L408.916105,653.395328 Z M357.832959,667.559059 L360.354805,668.096979 L357.832959,668.096979 L357.832959,667.559059 Z M325.668913,672.938254 L325.038451,673.476174 L323.147067,673.296126 L325.668913,672.938254 Z M462.521097,584.36603 L463.782021,584.903949 L461.260174,584.723902 L462.521097,584.36603 Z M81.6049923,555.318377 L82.2354538,555.856297 L80.3440692,555.856297 L81.6049923,555.318377 Z M255.666667,679.213241 L256.297128,678.675321 L257.558051,679.213241 L255.666667,679.213241 Z M678.835954,560.519747 L680.727338,560.519747 L678.205492,561.057667 L678.835954,560.519747 Z M363.508864,559.621733 L365.400249,560.159653 L363.508864,560.159653 L363.508864,559.621733 Z M341.435705,670.248657 L343.32709,670.248657 L342.696628,670.786576 L341.435705,670.248657 Z M84.7590513,496.329503 L86.0199744,496.329503 L86.0199744,495.971631 L84.7590513,495.971631 L84.7590513,496.329503 Z M574.778277,592.970519 L576.0392,592.970519 L576.0392,592.612647 L574.778277,592.612647 L574.778277,592.970519 Z M608.833708,598.709809 L611.355554,598.709809 L608.833708,599.067681 L608.833708,598.709809 Z M517.388764,577.908773 L518.649687,577.908773 L518.649687,577.550901 L517.388764,577.550901 L517.388764,577.908773 Z M45.6581769,675.627852 L46.9191,675.627852 L46.9191,675.269979 L45.6581769,675.269979 L45.6581769,675.627852 Z M46.9191,663.613575 L48.1800231,663.613575 L48.1800231,663.255703 L46.9191,663.255703 L46.9191,663.613575 Z M411.437951,677.24161 L412.698874,677.24161 L412.698874,676.883738 L411.437951,676.883738 L411.437951,677.24161 Z M317.471162,672.04024 L318.732085,672.04024 L318.732085,671.682368 L317.471162,671.682368 L317.471162,672.04024 Z M91.0654179,532.547934 L91.6958795,533.265901 L90.4349564,533.265901 L91.0654179,532.547934 Z M189.44719,668.99277 L191.970787,669.352865 L189.44719,669.352865 L189.44719,668.99277 Z M172.419474,543.664196 L173.680397,543.664196 L173.680397,543.306324 L172.419474,543.306324 L172.419474,543.664196 Z M667.484144,681.722791 L668.745067,681.722791 L668.745067,681.364919 L667.484144,681.364919 L667.484144,681.722791 Z M625.230962,528.782497 L626.491885,528.782497 L626.491885,528.424625 L625.230962,528.424625 L625.230962,528.782497 Z M168.004492,496.867422 L169.265415,496.867422 L169.265415,496.50955 L168.004492,496.50955 L168.004492,496.867422 Z M451.799749,556.932136 L454.323346,557.29223 L451.799749,557.29223 L451.799749,556.932136 Z M240.530336,655.006863 L241.791259,655.006863 L241.791259,654.648991 L240.530336,654.648991 L240.530336,655.006863 Z M295.398003,572.351754 L297.919849,572.711848 L295.398003,572.711848 L295.398003,572.351754 Z M468.827464,636.181904 L470.088387,636.181904 L470.088387,635.824032 L468.827464,635.824032 L468.827464,636.181904 Z M352.157054,569.842204 L353.417977,569.842204 L353.417977,569.484331 L352.157054,569.484331 L352.157054,569.842204 Z M530.631959,633.314481 L523.064669,634.030226 L527.4779,633.492306 L530.631959,633.314481 Z M386.212485,562.669203 L387.473408,562.669203 L387.473408,562.311331 L386.212485,562.311331 L386.212485,562.669203 Z M244.945318,672.04024 L246.206241,672.04024 L246.206241,671.682368 L244.945318,671.682368 L244.945318,672.04024 Z M469.457926,599.783425 L470.718849,599.783425 L470.718849,599.425553 L469.457926,599.425553 L469.457926,599.783425 Z M312.425718,678.495274 L313.686641,678.495274 L313.686641,678.137402 L312.425718,678.137402 L312.425718,678.495274 Z M554.596503,632.954387 L555.857426,632.954387 L555.857426,632.596515 L554.596503,632.596515 L554.596503,632.954387 Z M575.408738,612.873541 L576.669662,612.873541 L576.669662,612.515669 L575.408738,612.515669 L575.408738,612.873541 Z M563.426467,496.689597 L565.948313,497.04747 L563.426467,497.04747 L563.426467,496.689597 Z M343.32709,666.125348 L344.588013,666.125348 L344.588013,665.767476 L343.32709,665.767476 L343.32709,666.125348 Z M570.993756,548.147599 L572.254679,548.147599 L572.254679,547.789727 L570.993756,547.789727 L570.993756,548.147599 Z M302.965292,498.123309 L304.226215,498.123309 L304.226215,497.765436 L302.965292,497.765436 L302.965292,498.123309 Z M299.811233,649.629891 L302.334831,649.987763 L299.811233,649.987763 L299.811233,649.629891 Z M455.584269,569.662156 L458.106115,570.022251 L455.584269,570.022251 L455.584269,569.662156 Z M279.63121,644.250696 L280.261672,644.968663 L279.000749,644.968663 L279.63121,644.250696 Z M307.380274,664.689414 L308.641197,664.689414 L308.641197,664.331542 L307.380274,664.331542 L307.380274,664.689414 Z M270.801246,653.931024 L272.062169,653.931024 L272.062169,653.573152 L270.801246,653.573152 L270.801246,653.931024 Z M498.467913,497.943261 L499.728836,497.943261 L499.728836,497.585389 L498.467913,497.585389 L498.467913,497.943261 Z M590.545069,616.45893 L591.805992,616.45893 L591.805992,616.101058 L590.545069,616.101058 L590.545069,616.45893 Z M688.296379,585.799741 L690.818226,586.157613 L688.296379,586.157613 L688.296379,585.799741 Z M454.953808,573.60764 L457.475654,573.965512 L454.953808,573.965512 L454.953808,573.60764 Z M648.565044,653.573152 L649.825967,653.573152 L649.825967,653.21528 L648.565044,653.21528 L648.565044,653.573152 Z M477.026967,685.846099 L478.28789,685.846099 L478.28789,685.488227 L477.026967,685.488227 L477.026967,685.846099 Z M507.297877,658.414428 L508.5588,658.414428 L508.5588,658.056556 L507.297877,658.056556 L507.297877,658.414428 Z M499.098374,622.913964 L500.361049,623.451883 L498.467913,623.271836 L499.098374,622.913964 Z M344.588013,664.331542 L345.850687,664.869462 L343.957551,664.691637 L344.588013,664.331542 Z M502.882895,667.739107 L504.774279,668.096979 L502.882895,668.096979 L502.882895,667.739107 Z M79.0831462,551.375116 L80.9745308,551.732988 L79.0831462,551.732988 L79.0831462,551.375116 Z M307.380274,682.620805 L309.271659,682.978677 L307.380274,682.978677 L307.380274,682.620805 Z M449.908364,653.395328 L451.169287,653.933247 L449.908364,653.933247 L449.908364,653.395328 Z M492.161546,629.18895 L494.054682,629.549045 L492.161546,629.549045 L492.161546,629.18895 Z M601.264667,584.36603 L603.157803,584.36603 L603.157803,584.723902 L601.264667,584.36603 Z M304.856677,681.187094 L306.119351,681.725013 L304.856677,681.725013 L304.856677,681.187094 Z M92.326341,591.358983 L94.2177256,591.358983 L91.6958795,591.716856 L92.326341,591.358983 Z M477.657428,658.414428 L478.918351,658.414428 L477.026967,658.952347 L477.657428,658.414428 Z M119.444944,498.841275 L121.336328,499.199148 L119.444944,499.199148 L119.444944,498.841275 Z M496.576528,612.155574 L498.467913,612.515669 L496.576528,612.515669 L496.576528,612.155574 Z M623.968287,670.248657 L625.861423,670.606529 L623.968287,670.606529 L623.968287,670.248657 Z M290.352559,563.207122 L292.874405,563.567217 L290.983021,563.567217 L290.352559,563.207122 Z M518.649687,625.961433 L519.280149,626.499353 L518.019226,626.499353 L518.649687,625.961433 Z M298.55031,539.183015 L300.443446,539.540887 L298.55031,539.540887 L298.55031,539.183015 Z M649.195505,667.201187 L649.825967,667.739107 L648.565044,667.739107 L649.195505,667.201187 Z M53.2254667,558.007975 L55.1168513,558.007975 L52.5950051,558.368069 L53.2254667,558.007975 Z M38.7213487,644.070649 L39.3518103,644.070649 L38.7213487,644.608568 L38.7213487,644.070649 Z M459.36879,642.816985 L460.629713,642.816985 L458.736577,643.174857 L459.36879,642.816985 Z M264.494879,542.050437 L265.757554,542.050437 L263.864418,542.410532 L264.494879,542.050437 Z M598.742821,590.460969 L598.112359,591.178936 L598.112359,590.641017 L598.742821,590.460969 Z M465.675156,643.174857 L465.044695,643.892824 L465.044695,643.354904 L465.675156,643.174857 Z M414.59201,573.60764 L416.483395,573.787687 L415.222472,573.787687 L414.59201,573.60764 Z M459.36879,657.338589 L458.736577,657.876508 L458.736577,657.518636 L459.36879,657.338589 Z M343.957551,675.807899 L343.32709,676.345818 L343.32709,675.985724 L343.957551,675.807899 Z M218.457177,587.233452 L220.980774,587.4135 L219.7181,587.4135 L218.457177,587.233452 Z M285.937577,648.19618 L285.307115,648.734099 L285.307115,648.374005 L285.937577,648.19618 Z M489.009238,664.331542 L488.378777,664.869462 L488.378777,664.51159 L489.009238,664.331542 Z M66.4686615,552.270908 L65.8382,552.988875 L65.8382,552.62878 L66.4686615,552.270908 Z" id="Fill-11"></path>
        </g>
    </g>
</svg>